<?xml version="1.0" encoding="UTF-8"?>
<!DOCTYPE svg PUBLIC "-//W3C//DTD SVG 1.1//EN" "http://www.w3.org/Graphics/SVG/1.1/DTD/svg11.dtd">
<svg version="1.2" xmlns="http://www.w3.org/2000/svg" xmlns:xlink="http://www.w3.org/1999/xlink" x="0" y="0" width="448" height="198" viewBox="0 0 448 198">
<style type="text/css"><![CDATA[
text { font:12px Dialog; }
]]></style>
<rect x="-485" y="-485" width="1420" height="1168" style="fill:rgb(255,255,255);stroke:none" />
<clipPath id="clip1"><path d="M15,15 L435,15 L435,183 L15,183 Z M26,63 C21.5817184,63 18,66.5817184 18,71 L18,123 C18,127.4182816 21.5817184,131 26,131 L176,131 C180.4182739,131 184,127.4182816 184,123 L184,71 C184,66.5817184 180.4182739,63 176,63 Z" /></clipPath>
<path d="M172.6621094,63 C184.9594116,45.496666 203.4053802,36.7449989 228,36.7449989" style="fill:none;stroke:rgb(85,142,213)" clip-path="url(#clip1)" />
<clipPath id="clip2"><path d="M15,15 L435,15 L435,183 L15,183 Z M26,63 C21.5817184,63 18,66.5817184 18,71 L18,123 C18,127.4182816 21.5817184,131 26,131 L176,131 C180.4182739,131 184,127.4182816 184,123 L184,71 C184,66.5817184 180.4182739,63 176,63 Z" /></clipPath>
<path d="M168.7186584,131 C181.8922882,150.8425446 201.6527405,160.7638245 228,160.7638245" style="fill:none;stroke:rgb(85,142,213)" clip-path="url(#clip2)" />
<clipPath id="clip3"><path d="M14,59 L189,59 L189,136 L14,136 L14,59 Z" /></clipPath>
<path d="M26,63 C21.5817184,63 18,66.5817184 18,71 L18,123 C18,127.4182816 21.5817184,131 26,131 L176,131 C180.4182739,131 184,127.4182816 184,123 L184,71 C184,66.5817184 180.4182739,63 176,63 Z" style="fill:rgb(220,230,242);stroke:none" clip-path="url(#clip3)" />
<clipPath id="clip4"><path d="M14,59 L189,59 L189,136 L14,136 L14,59 Z" /></clipPath>
<path d="M26,63 C21.5817184,63 18,66.5817184 18,71 L18,123 C18,127.4182816 21.5817184,131 26,131 L176,131 C180.4182739,131 184,127.4182816 184,123 L184,71 C184,66.5817184 180.4182739,63 176,63 Z" style="fill:none;stroke:rgb(85,142,213);stroke-width:5" clip-path="url(#clip4)" />
<clipPath id="clip5"><path d="M50,79 L153,79 L153,116 L50,116 L50,79 Z" /></clipPath>
<path d="M62.0488358,85.8515625 L65.6113358,85.8515625 L65.6113358,90 L74.3535233,90 L74.3535233,103.1484375 L70.8847733,103.1484375 L70.8847733,101.53125 L65.6113358,101.53125 L65.6113358,109.078125 L62.0488358,109.078125 L62.0488358,101.53125 L56.7753983,101.53125 L56.7753983,103.21875 L53.3066483,103.21875 L53.3066483,90 L62.0488358,90 Z M70.8847733,93.234375 L65.6113358,93.234375 L65.6113358,98.296875 L70.8847733,98.296875 Z M56.7753983,98.296875 L62.0488358,98.296875 L62.0488358,93.234375 L56.7753983,93.234375 Z M88.333992,85.78125 C89.693367,87.5009766 91.1545486,89.5319824 92.7168045,91.875 L89.599617,93.796875 C88.2717361,91.4069824 86.9511795,89.2895508 85.6386795,87.4453125 Z M92.693367,100.6171875 C94.099617,101.1958008 95.2795486,101.6411133 96.2324295,101.953125 C96.1232986,102.6958008 95.9218826,103.6904297 95.6289139,104.9362793 C95.3359451,106.1821289 94.990242,106.9885254 94.5918045,107.3554688 C94.193367,107.7231445 93.6953201,107.9963379 93.0976639,108.1757813 C92.5000076,108.355957 91.7793045,108.4453125 90.9355545,108.4453125 L87.0918045,108.4453125 C84.4668045,108.4453125 83.1543045,107.1174316 83.1543045,104.4609375 L83.1543045,90.9609375 L86.6230545,90.9609375 L86.6230545,103.3828125 C86.6230545,104.7275391 87.3188553,105.3991699 88.708992,105.3984375 L89.9043045,105.3984375 C90.6074295,105.3991699 91.1545486,105.2805176 91.5449295,105.041748 C91.9360428,104.8037109 92.177742,104.4558105 92.271492,103.9987793 C92.365242,103.541748 92.505867,102.4145508 92.693367,100.6171875 Z M79.4511795,92.578125 L82.662117,93.3046875 C81.9904861,97.0239258 81.115242,100.4692383 80.037117,103.640625 L76.9199295,102.4921875 C77.8105545,99.6489258 78.6543045,96.3442383 79.4511795,92.578125 Z M97.005867,92.953125 C98.2561111,95.5166016 99.349617,98.0866699 100.287117,100.6640625 L97.052742,102 C96.1782303,99.4541016 95.1235428,96.8598633 93.8886795,94.21875 Z M101.7988358,104.9765625 L111.5019608,104.9765625 L111.5019608,100.59375 L104.2832108,100.59375 L104.2832108,97.546875 L111.5019608,97.546875 L111.5019608,93.3046875 L103.1582108,93.3046875 L103.1582108,90.2109375 L112.240242,90.2109375 C111.7172928,89.1804199 111.1269608,88.1645508 110.4707108,87.1640625 L113.6816483,85.7109375 C114.3847733,86.7429199 115.0878983,87.8913574 115.7910233,89.15625 L113.5293045,90.2109375 L123.5019608,90.2109375 L123.5019608,93.3046875 L115.0410233,93.3046875 L115.0410233,97.546875 L122.4238358,97.546875 L122.4238358,100.59375 L115.0410233,100.59375 L115.0410233,104.9765625 L124.7675858,104.9765625 L124.7675858,108.1171875 L101.7988358,108.1171875 Z M127.521492,86.7890625 L136.7089844,86.7890625 L136.7089844,95.8828125 L127.521492,95.8828125 Z M133.9902344,88.9921875 L130.2402496,88.9921875 L130.2402496,90.3515625 L133.9902344,90.3515625 Z M133.9902344,93.6796875 L133.9902344,92.3203125 L130.2402496,92.3203125 L130.2402496,93.6796875 Z M138.0449219,91.0078125 L141.1503906,91.0078125 C141.2602539,90.3757324 141.3540039,89.7663574 141.4316406,89.1796875 L137.6230469,89.1796875 L137.6230469,86.8359375 L149.1308594,86.8359375 L149.1308594,89.1796875 L144.3964844,89.1796875 C144.2954102,89.7978516 144.1855469,90.4072266 144.0683594,91.0078125 L148.4277344,91.0078125 L148.4277344,100.8515625 L145.7558594,100.8515625 L145.7558594,93.3515625 L140.7167969,93.3515625 L140.7167969,100.828125 L138.0449219,100.828125 Z M127.5918045,100.2890625 L130.1464996,100.2890625 C130.1545563,101.1804199 130.1391754,102.0161133 130.0996246,102.796875 C130.4592438,103.1337891 130.8342438,103.4421387 131.2246246,103.7226563 L131.2246246,99.3046875 L126.5136795,99.3046875 L126.5136795,96.9609375 L137.2480469,96.9609375 L137.2480469,99.3046875 L134.1074219,99.3046875 L134.1074219,100.8046875 L136.8964844,100.8046875 L136.8964844,103.1015625 L134.1074219,103.1015625 L134.1074219,105.2109375 C135.1855469,105.5866699 136.4475098,105.7858887 137.8925781,105.8085938 C137.3461914,104.9890137 136.7719727,104.2507324 136.1699219,103.59375 C137.888916,103.1257324 139.2871094,102.3742676 140.3652344,101.338623 C141.4433594,100.3037109 141.9824219,98.6806641 141.9824219,96.46875 L141.9824219,94.359375 L144.5136719,94.359375 L144.5136719,96.609375 C144.5136719,97.8991699 144.3730469,99.0629883 144.0917969,100.1015625 C146.1777344,101.3291016 148.0292969,102.5163574 149.6464844,103.6640625 L147.8535156,105.7851563 L149.6933594,105.75 C149.3344727,106.59375 149.0532227,107.5004883 148.8496094,108.46875 C145.3808594,108.46875 142.375,108.4555664 139.8320313,108.4277344 C137.2890625,108.4006348 135.592041,108.2973633 134.7402344,108.1171875 C133.8891602,107.9377441 133.0410156,107.638916 132.1972809,107.2207031 C131.3535309,106.8032227 130.5529938,106.2736816 129.7949371,105.6328125 C129.5371246,107.15625 129.1313629,108.375 128.5761871,109.2890625 C128.0136871,108.5859375 127.2482986,107.7817383 126.2793045,106.875 C127.1699295,105.5163574 127.6079178,103.3212891 127.5918045,100.2890625 Z M138.8535156,105.8203125 L147.5371094,105.7851563 C146.0839844,104.5825195 144.5839844,103.4772949 143.0371094,102.46875 C142.0922852,103.8208008 140.6977539,104.9384766 138.8535156,105.8203125 Z" style="fill:rgb(55,96,146);stroke:none" clip-path="url(#clip5)" />
<clipPath id="clip6"><path d="M226,14 L329,14 L329,60 L226,60 L226,14 Z" /></clipPath>
<path d="M233,16 C230.2385712,16 228,18.2385712 228,21 L228,52 C228,54.761425 230.2385712,57 233,57 L321,57 C323.7614136,57 326,54.761425 326,52 L326,21 C326,18.2385712 323.7614136,16 321,16 Z" style="fill:rgb(220,230,242);stroke:none" clip-path="url(#clip6)" />
<clipPath id="clip7"><path d="M226,14 L329,14 L329,60 L226,60 L226,14 Z" /></clipPath>
<path d="M233,16 C230.2385712,16 228,18.2385712 228,21 L228,52 C228,54.761425 230.2385712,57 233,57 L321,57 C323.7614136,57 326,54.761425 326,52 L326,21 C326,18.2385712 323.7614136,16 321,16 Z" style="fill:none;stroke:rgb(85,142,213);stroke-width:2" clip-path="url(#clip7)" />
<clipPath id="clip8"><path d="M240,23 L315,23 L315,51 L240,51 L240,23 Z" /></clipPath>
<path d="M248.6445465,31.5837402 C248.3405304,31.4239502 248.0110931,31.3435364 247.6567535,31.3430176 C246.6388702,31.3435364 246.1294098,31.9743958 246.1294098,33.2355957 L246.1294098,34.6052246 L248.2793121,34.6052246 L248.2793121,35.9499512 L246.1294098,35.9499512 L246.1294098,43.7858887 L244.5190582,43.7858887 L244.5190582,35.9499512 L242.9502106,35.9499512 L242.9502106,34.6052246 L244.5190582,34.6052246 L244.5190582,33.1608887 C244.5190582,32.1762085 244.8028412,31.4031982 245.3698883,30.8413391 C245.9374542,30.2799988 246.6580658,29.9988098 247.5322418,29.998291 C247.9970856,29.9988098 248.3680267,30.0512085 248.6445465,30.1560059 Z M249.4912262,41.802002 C250.3104095,42.3944702 251.1928864,42.6907043 252.1391754,42.6901855 C253.406601,42.6907043 254.0400543,42.2756653 254.0400543,41.4450684 C254.0400543,41.0912476 253.9020538,40.7996826 253.6250153,40.5698547 C253.3484955,40.3405457 252.7866364,40.0676575 251.9399567,39.751709 C250.9220734,39.3428955 250.2606049,38.9377136 249.9560699,38.5361633 C249.6520538,38.1351318 249.499527,37.6495361 249.499527,37.0788574 C249.499527,36.2658997 249.8440094,35.6142883 250.5329742,35.1245422 C251.2219391,34.6347961 252.0701752,34.3899231 253.0771637,34.3894043 C253.8574371,34.3899231 254.5827179,34.5253296 255.2519684,34.7961426 L255.2519684,36.3649902 C254.5661163,35.9229736 253.7884369,35.7014465 252.9194489,35.7009277 C252.3996124,35.7014465 251.9762726,35.8150635 251.6494293,36.0417786 C251.3231049,36.2690125 251.1596832,36.5673218 251.1596832,36.9377441 C251.1596832,37.3034973 251.2774506,37.5888367 251.5124664,37.7932434 C251.7480011,37.9981689 252.2693939,38.2606812 253.0771637,38.5812988 C254.1012726,38.9636536 254.7928314,39.3594971 255.152359,39.7688293 C255.5124054,40.1786804 255.6919098,40.6845093 255.6919098,41.2873535 C255.6919098,42.1288452 255.3474274,42.7918701 254.6584625,43.2759094 C253.9694977,43.7604675 253.0771637,44.001709 251.9814606,44.001709 C251.0299835,44.001709 250.1999054,43.8222046 249.4912262,43.4621582 Z M266.0761719,43.7858887 L264.4492188,43.7858887 L264.4492188,42.2585449 L264.4160156,42.2585449 C263.7467651,43.4211731 262.7060547,44.001709 261.2949219,44.001709 C260.1328125,44.001709 259.2088623,43.5887451 258.5224609,42.761261 C257.8366089,41.9342957 257.4931641,40.8173218 257.4931641,39.411377 C257.4931641,37.8954468 257.8807373,36.6799011 258.6552734,35.7637024 C259.4303589,34.8480225 260.4430542,34.3899231 261.6933594,34.3894043 C262.9442139,34.3899231 263.8515625,34.8770752 264.4160156,35.8503418 L264.4492188,35.8503418 L264.4492188,30.1975098 L266.0761719,30.1975098 Z M264.4575195,38.3239746 C264.4575195,37.5883179 264.2157593,36.9730225 263.7312012,36.4775696 C263.2471924,35.9826355 262.651062,35.7346497 261.9423828,35.7341309 C261.0791016,35.7346497 260.3984375,36.0573425 259.9003906,36.7016907 C259.4023438,37.3465576 259.1533203,38.224884 259.1533203,39.3366699 C259.1533203,40.3607788 259.3930054,41.1706238 259.8713379,41.7651672 C260.3502197,42.3602295 260.987793,42.6575012 261.784668,42.6569824 C262.5706787,42.6575012 263.2124023,42.3659363 263.7104492,41.7817688 C264.2084961,41.1981201 264.4575195,40.4718018 264.4575195,39.6022949 Z M269.5209961,35.2443848 C270.434082,34.6747437 271.4882813,34.3899231 272.6835938,34.3894043 C274.8973389,34.3899231 276.0039063,35.5520325 276.0039063,37.8757324 L276.0039063,43.7858887 L274.3935547,43.7858887 L274.3935547,42.3664551 L274.3520508,42.3664551 C273.7160034,43.4569702 272.7780151,44.001709 271.5380859,44.001709 C270.6473389,44.001709 269.9391479,43.7615051 269.4130859,43.2800598 C268.8875732,42.7986145 268.6245117,42.1485596 268.6245117,41.3288574 C268.6245117,39.6137085 269.6403198,38.6150208 271.6708984,38.3322754 L274.3935547,37.9504395 C274.3935547,36.4511108 273.7741089,35.7014465 272.5341797,35.7009277 C271.4332886,35.7014465 270.428894,36.0723877 269.5209961,36.8132324 Z M272.2436523,39.4694824 C271.491394,39.5696106 270.9725952,39.7579346 270.6872559,40.0344543 C270.4024658,40.3114929 270.2597656,40.6985168 270.2597656,41.1960449 C270.2597656,41.6339111 270.414917,41.9908447 270.7246094,42.2673645 C271.0348511,42.5444031 271.4442139,42.6824036 271.953125,42.6818848 C272.6618042,42.6824036 273.2454834,42.4333801 273.7045898,41.9353333 C274.1642456,41.4372864 274.3935547,40.8121338 274.3935547,40.0588379 L274.3935547,39.1789551 Z M283.6904297,31.5837402 C283.3864136,31.4239502 283.0570068,31.3435364 282.7026367,31.3430176 C281.6847534,31.3435364 281.175293,31.9743958 281.175293,33.2355957 L281.175293,34.6052246 L283.3251953,34.6052246 L283.3251953,35.9499512 L281.175293,35.9499512 L281.175293,43.7858887 L279.5649414,43.7858887 L279.5649414,35.9499512 L277.9960938,35.9499512 L277.9960938,34.6052246 L279.5649414,34.6052246 L279.5649414,33.1608887 C279.5649414,32.1762085 279.8487549,31.4031982 280.4157715,30.8413391 C280.9833374,30.2799988 281.7039795,29.9988098 282.578125,29.998291 C283.0429688,29.9988098 283.4139404,30.0512085 283.6904297,30.1560059 Z M284.5371094,41.802002 C285.3563232,42.3944702 286.2387695,42.6907043 287.1850586,42.6901855 C288.4525146,42.6907043 289.0859375,42.2756653 289.0859375,41.4450684 C289.0859375,41.0912476 288.947937,40.7996826 288.6708984,40.5698547 C288.3944092,40.3405457 287.8325195,40.0676575 286.9858398,39.751709 C285.9679565,39.3428955 285.3065186,38.9377136 285.0019531,38.5361633 C284.697937,38.1351318 284.5454102,37.6495361 284.5454102,37.0788574 C284.5454102,36.2658997 284.8898926,35.6142883 285.5788574,35.1245422 C286.2678223,34.6347961 287.1160889,34.3899231 288.1230469,34.3894043 C288.9033203,34.3899231 289.6286011,34.5253296 290.2978516,34.7961426 L290.2978516,36.3649902 C289.6119995,35.9229736 288.8343506,35.7014465 287.965332,35.7009277 C287.4454956,35.7014465 287.0221558,35.8150635 286.6953125,36.0417786 C286.3690186,36.2690125 286.2055664,36.5673218 286.2055664,36.9377441 C286.2055664,37.3034973 286.3233643,37.5888367 286.5583496,37.7932434 C286.7938843,37.9981689 287.3153076,38.2606812 288.1230469,38.5812988 C289.1471558,38.9636536 289.8387451,39.3594971 290.1982422,39.7688293 C290.5582886,40.1786804 290.737793,40.6845093 290.737793,41.2873535 C290.737793,42.1288452 290.3933105,42.7918701 289.7043457,43.2759094 C289.0153809,43.7604675 288.1230469,44.001709 287.0273438,44.001709 C286.0758667,44.001709 285.2457886,43.8222046 284.5371094,43.4621582 Z M301.1220703,43.7858887 L299.4951172,43.7858887 L299.4951172,42.2585449 L299.4619141,42.2585449 C298.7926636,43.4211731 297.7519531,44.001709 296.3408203,44.001709 C295.1787109,44.001709 294.2547607,43.5887451 293.5683594,42.761261 C292.8825073,41.9342957 292.5390625,40.8173218 292.5390625,39.411377 C292.5390625,37.8954468 292.9266357,36.6799011 293.7011719,35.7637024 C294.4762573,34.8480225 295.4889526,34.3899231 296.7392578,34.3894043 C297.9901123,34.3899231 298.8974609,34.8770752 299.4619141,35.8503418 L299.4951172,35.8503418 L299.4951172,30.1975098 L301.1220703,30.1975098 Z M299.503418,38.3239746 C299.503418,37.5883179 299.2616577,36.9730225 298.7770996,36.4775696 C298.2930908,35.9826355 297.6969604,35.7346497 296.9882813,35.7341309 C296.125,35.7346497 295.4443359,36.0573425 294.9462891,36.7016907 C294.4482422,37.3465576 294.1992188,38.224884 294.1992188,39.3366699 C294.1992188,40.3607788 294.4389038,41.1706238 294.9172363,41.7651672 C295.3961182,42.3602295 296.0336914,42.6575012 296.8305664,42.6569824 C297.6165771,42.6575012 298.2583008,42.3659363 298.7563477,41.7817688 C299.2543945,41.1981201 299.503418,40.4718018 299.503418,39.6022949 Z M304.5668945,35.2443848 C305.4799805,34.6747437 306.5341797,34.3899231 307.7294922,34.3894043 C309.9432373,34.3899231 311.0498047,35.5520325 311.0498047,37.8757324 L311.0498047,43.7858887 L309.4394531,43.7858887 L309.4394531,42.3664551 L309.3979492,42.3664551 C308.7619019,43.4569702 307.8239136,44.001709 306.5839844,44.001709 C305.6932373,44.001709 304.9850464,43.7615051 304.4589844,43.2800598 C303.9334717,42.7986145 303.6704102,42.1485596 303.6704102,41.3288574 C303.6704102,39.6137085 304.6862183,38.6150208 306.7167969,38.3322754 L309.4394531,37.9504395 C309.4394531,36.4511108 308.8200073,35.7014465 307.5800781,35.7009277 C306.479187,35.7014465 305.4747925,36.0723877 304.5668945,36.8132324 Z M307.2895508,39.4694824 C306.5372925,39.5696106 306.0184937,39.7579346 305.7331543,40.0344543 C305.4483643,40.3114929 305.3056641,40.6985168 305.3056641,41.1960449 C305.3056641,41.6339111 305.4608154,41.9908447 305.7705078,42.2673645 C306.0807495,42.5444031 306.4901123,42.6824036 306.9990234,42.6818848 C307.7077026,42.6824036 308.2913818,42.4333801 308.7504883,41.9353333 C309.210144,41.4372864 309.4394531,40.8121338 309.4394531,40.0588379 L309.4394531,39.1789551 Z" style="fill:rgb(23,55,94);stroke:none" clip-path="url(#clip8)" />
<clipPath id="clip9"><path d="M227,132 L435,132 L435,183 L227,183 Z M233,140 C230.2385712,140 228,142.2385712 228,145 L228,176 C228,178.7614288 230.2385712,181 233,181 L328,181 C330.7614136,181 333,178.7614288 333,176 L333,145 C333,142.2385712 330.7614136,140 328,140 Z" /></clipPath>
<path d="M345.9998169,160.8258667 C348.2221069,160.9419556 351.555481,161 356,161" style="fill:none;stroke:rgb(85,142,213)" clip-path="url(#clip9)" />
<clipPath id="clip10"><path d="M226,131 L436,131 L436,184 L226,184 L226,131 Z" /></clipPath>
<path d="M333,160.7612 L345.9998169,160.8258667" style="fill:none;stroke:rgb(85,142,213)" clip-path="url(#clip10)" />
<clipPath id="clip11"><path d="M226,138 L336,138 L336,184 L226,184 L226,138 Z" /></clipPath>
<path d="M233,140 C230.2385712,140 228,142.2385712 228,145 L228,176 C228,178.7614288 230.2385712,181 233,181 L328,181 C330.7614136,181 333,178.7614288 333,176 L333,145 C333,142.2385712 330.7614136,140 328,140 Z" style="fill:rgb(220,230,242);stroke:none" clip-path="url(#clip11)" />
<clipPath id="clip12"><path d="M226,138 L336,138 L336,184 L226,184 L226,138 Z" /></clipPath>
<path d="M233,140 C230.2385712,140 228,142.2385712 228,145 L228,176 C228,178.7614288 230.2385712,181 233,181 L328,181 C330.7614136,181 333,178.7614288 333,176 L333,145 C333,142.2385712 330.7614136,140 328,140 Z" style="fill:none;stroke:rgb(85,142,213);stroke-width:2" clip-path="url(#clip12)" />
<clipPath id="clip13"><path d="M240,147 L322,147 L322,175 L240,175 L240,147 Z" /></clipPath>
<path d="M248.3012848,155.5837402 C247.9972687,155.4239502 247.6678314,155.3435364 247.3134918,155.3430176 C246.2956085,155.3435364 245.7861481,155.9743958 245.7861481,157.2355957 L245.7861481,158.6052246 L247.9360504,158.6052246 L247.9360504,159.9499512 L245.7861481,159.9499512 L245.7861481,167.7858887 L244.1757965,167.7858887 L244.1757965,159.9499512 L242.6069489,159.9499512 L242.6069489,158.6052246 L244.1757965,158.6052246 L244.1757965,157.1608887 C244.1757965,156.1762085 244.4595795,155.4031982 245.0266266,154.8413391 C245.5941925,154.2799988 246.3148041,153.9988098 247.1889801,153.998291 C247.6538239,153.9988098 248.024765,154.0512085 248.3012848,154.1560059 Z M249.1479645,165.802002 C249.9671478,166.3944702 250.8496246,166.6907043 251.7959137,166.6901855 C253.0633392,166.6907043 253.6967926,166.2756653 253.6967926,165.4450684 C253.6967926,165.0912476 253.5587921,164.7996826 253.2817535,164.5698547 C253.0052338,164.3405457 252.4433746,164.0676575 251.5966949,163.751709 C250.5788116,163.3428955 249.9173431,162.9377136 249.6128082,162.5361633 C249.3087921,162.1351318 249.1562653,161.6495361 249.1562653,161.0788574 C249.1562653,160.2658997 249.5007477,159.6142883 250.1897125,159.1245422 C250.8786774,158.6347961 251.7269135,158.3899231 252.733902,158.3894043 C253.5141754,158.3899231 254.2394562,158.5253296 254.9087067,158.7961426 L254.9087067,160.3649902 C254.2228546,159.9229736 253.4451752,159.7014465 252.5761871,159.7009277 C252.0563507,159.7014465 251.6330109,159.8150635 251.3061676,160.0417786 C250.9798431,160.2690125 250.8164215,160.5673218 250.8164215,160.9377441 C250.8164215,161.3034973 250.9341888,161.5888367 251.1692047,161.7932434 C251.4047394,161.9981689 251.9261322,162.2606812 252.733902,162.5812988 C253.7580109,162.9636536 254.4495697,163.3594971 254.8090973,163.7688293 C255.1691437,164.1786804 255.3486481,164.6845093 255.3486481,165.2873535 C255.3486481,166.1288452 255.0041656,166.7918701 254.3152008,167.2759094 C253.626236,167.7604675 252.733902,168.001709 251.6381989,168.001709 C250.6867218,168.001709 249.8566437,167.8222046 249.1479645,167.4621582 Z M265.7329102,167.7858887 L264.105957,167.7858887 L264.105957,166.2585449 L264.0727539,166.2585449 C263.4035034,167.4211731 262.362793,168.001709 260.9516602,168.001709 C259.7895508,168.001709 258.8656006,167.5887451 258.1791992,166.761261 C257.4933472,165.9342957 257.1499023,164.8173218 257.1499023,163.411377 C257.1499023,161.8954468 257.5374756,160.6799011 258.3120117,159.7637024 C259.0870972,158.8480225 260.0997925,158.3899231 261.3500977,158.3894043 C262.6009521,158.3899231 263.5083008,158.8770752 264.0727539,159.8503418 L264.105957,159.8503418 L264.105957,154.1975098 L265.7329102,154.1975098 Z M264.1142578,162.3239746 C264.1142578,161.5883179 263.8724976,160.9730225 263.3879395,160.4775696 C262.9039307,159.9826355 262.3078003,159.7346497 261.5991211,159.7341309 C260.7358398,159.7346497 260.0551758,160.0573425 259.5571289,160.7016907 C259.059082,161.3465576 258.8100586,162.224884 258.8100586,163.3366699 C258.8100586,164.3607788 259.0497437,165.1706238 259.5280762,165.7651672 C260.006958,166.3602295 260.6445313,166.6575012 261.4414063,166.6569824 C262.227417,166.6575012 262.8691406,166.3659363 263.3671875,165.7817688 C263.8652344,165.1981201 264.1142578,164.4718018 264.1142578,163.6022949 Z M269.1777344,159.2443848 C270.0908203,158.6747437 271.1450195,158.3899231 272.340332,158.3894043 C274.5540771,158.3899231 275.6606445,159.5520325 275.6606445,161.8757324 L275.6606445,167.7858887 L274.050293,167.7858887 L274.050293,166.3664551 L274.0087891,166.3664551 C273.3727417,167.4569702 272.4347534,168.001709 271.1948242,168.001709 C270.3040771,168.001709 269.5958862,167.7615051 269.0698242,167.2800598 C268.5443115,166.7986145 268.28125,166.1485596 268.28125,165.3288574 C268.28125,163.6137085 269.2970581,162.6150208 271.3276367,162.3322754 L274.050293,161.9504395 C274.050293,160.4511108 273.4308472,159.7014465 272.190918,159.7009277 C271.0900269,159.7014465 270.0856323,160.0723877 269.1777344,160.8132324 Z M271.9003906,163.4694824 C271.1481323,163.5696106 270.6293335,163.7579346 270.3439941,164.0344543 C270.0592041,164.3114929 269.9165039,164.6985168 269.9165039,165.1960449 C269.9165039,165.6339111 270.0716553,165.9908447 270.3813477,166.2673645 C270.6915894,166.5444031 271.1009521,166.6824036 271.6098633,166.6818848 C272.3185425,166.6824036 272.9022217,166.4333801 273.3613281,165.9353333 C273.8209839,165.4372864 274.050293,164.8121338 274.050293,164.0588379 L274.050293,163.1789551 Z M283.347168,155.5837402 C283.0431519,155.4239502 282.7137451,155.3435364 282.359375,155.3430176 C281.3414917,155.3435364 280.8320313,155.9743958 280.8320313,157.2355957 L280.8320313,158.6052246 L282.9819336,158.6052246 L282.9819336,159.9499512 L280.8320313,159.9499512 L280.8320313,167.7858887 L279.2216797,167.7858887 L279.2216797,159.9499512 L277.652832,159.9499512 L277.652832,158.6052246 L279.2216797,158.6052246 L279.2216797,157.1608887 C279.2216797,156.1762085 279.5054932,155.4031982 280.0725098,154.8413391 C280.6400757,154.2799988 281.3607178,153.9988098 282.2348633,153.998291 C282.699707,153.9988098 283.0706787,154.0512085 283.347168,154.1560059 Z M284.9243164,159.2443848 C285.8374023,158.6747437 286.8916016,158.3899231 288.0869141,158.3894043 C290.3006592,158.3899231 291.4072266,159.5520325 291.4072266,161.8757324 L291.4072266,167.7858887 L289.796875,167.7858887 L289.796875,166.3664551 L289.7553711,166.3664551 C289.1193237,167.4569702 288.1813354,168.001709 286.9414063,168.001709 C286.0506592,168.001709 285.3424683,167.7615051 284.8164063,167.2800598 C284.2908936,166.7986145 284.027832,166.1485596 284.027832,165.3288574 C284.027832,163.6137085 285.0436401,162.6150208 287.0742188,162.3322754 L289.796875,161.9504395 C289.796875,160.4511108 289.1774292,159.7014465 287.9375,159.7009277 C286.8366089,159.7014465 285.8322144,160.0723877 284.9243164,160.8132324 Z M287.6469727,163.4694824 C286.8947144,163.5696106 286.3759155,163.7579346 286.0905762,164.0344543 C285.8057861,164.3114929 285.6630859,164.6985168 285.6630859,165.1960449 C285.6630859,165.6339111 285.8182373,165.9908447 286.1279297,166.2673645 C286.4381714,166.5444031 286.8475342,166.6824036 287.3564453,166.6818848 C288.0651245,166.6824036 288.6488037,166.4333801 289.1079102,165.9353333 C289.5675659,165.4372864 289.796875,164.8121338 289.796875,164.0588379 L289.796875,163.1789551 Z M293.8725586,165.802002 C294.6917725,166.3944702 295.5742188,166.6907043 296.5205078,166.6901855 C297.7879639,166.6907043 298.4213867,166.2756653 298.4213867,165.4450684 C298.4213867,165.0912476 298.2833862,164.7996826 298.0063477,164.5698547 C297.7298584,164.3405457 297.1679688,164.0676575 296.3212891,163.751709 C295.3034058,163.3428955 294.6419678,162.9377136 294.3374023,162.5361633 C294.0333862,162.1351318 293.8808594,161.6495361 293.8808594,161.0788574 C293.8808594,160.2658997 294.2253418,159.6142883 294.9143066,159.1245422 C295.6032715,158.6347961 296.4515381,158.3899231 297.4584961,158.3894043 C298.2387695,158.3899231 298.9640503,158.5253296 299.6333008,158.7961426 L299.6333008,160.3649902 C298.9474487,159.9229736 298.1697998,159.7014465 297.3007813,159.7009277 C296.7809448,159.7014465 296.357605,159.8150635 296.0307617,160.0417786 C295.7044678,160.2690125 295.5410156,160.5673218 295.5410156,160.9377441 C295.5410156,161.3034973 295.6588135,161.5888367 295.8937988,161.7932434 C296.1293335,161.9981689 296.6507568,162.2606812 297.4584961,162.5812988 C298.482605,162.9636536 299.1741943,163.3594971 299.5336914,163.7688293 C299.8937378,164.1786804 300.0732422,164.6845093 300.0732422,165.2873535 C300.0732422,166.1288452 299.7287598,166.7918701 299.0397949,167.2759094 C298.3508301,167.7604675 297.4584961,168.001709 296.362793,168.001709 C295.4113159,168.001709 294.5812378,167.8222046 293.8725586,167.4621582 Z M310.4575195,167.7858887 L308.8305664,167.7858887 L308.8305664,166.2585449 L308.7973633,166.2585449 C308.1281128,167.4211731 307.0874023,168.001709 305.6762695,168.001709 C304.5141602,168.001709 303.59021,167.5887451 302.9038086,166.761261 C302.2179565,165.9342957 301.8745117,164.8173218 301.8745117,163.411377 C301.8745117,161.8954468 302.262085,160.6799011 303.0366211,159.7637024 C303.8117065,158.8480225 304.8244019,158.3899231 306.074707,158.3894043 C307.3255615,158.3899231 308.2329102,158.8770752 308.7973633,159.8503418 L308.8305664,159.8503418 L308.8305664,154.1975098 L310.4575195,154.1975098 Z M308.8388672,162.3239746 C308.8388672,161.5883179 308.5971069,160.9730225 308.1125488,160.4775696 C307.62854,159.9826355 307.0324097,159.7346497 306.3237305,159.7341309 C305.4604492,159.7346497 304.7797852,160.0573425 304.2817383,160.7016907 C303.7836914,161.3465576 303.534668,162.224884 303.534668,163.3366699 C303.534668,164.3607788 303.774353,165.1706238 304.2526855,165.7651672 C304.7315674,166.3602295 305.3691406,166.6575012 306.1660156,166.6569824 C306.9520264,166.6575012 307.59375,166.3659363 308.0917969,165.7817688 C308.5898438,165.1981201 308.8388672,164.4718018 308.8388672,163.6022949 Z M318.3930664,155.5837402 C318.0890503,155.4239502 317.7596436,155.3435364 317.4052734,155.3430176 C316.3873901,155.3435364 315.8779297,155.9743958 315.8779297,157.2355957 L315.8779297,158.6052246 L318.027832,158.6052246 L318.027832,159.9499512 L315.8779297,159.9499512 L315.8779297,167.7858887 L314.2675781,167.7858887 L314.2675781,159.9499512 L312.6987305,159.9499512 L312.6987305,158.6052246 L314.2675781,158.6052246 L314.2675781,157.1608887 C314.2675781,156.1762085 314.5513916,155.4031982 315.1184082,154.8413391 C315.6859741,154.2799988 316.4066162,153.9988098 317.2807617,153.998291 C317.7456055,153.9988098 318.1165771,154.0512085 318.3930664,154.1560059 Z" style="fill:rgb(23,55,94);stroke:none" clip-path="url(#clip13)" />
<clipPath id="clip14"><path d="M334,155 L347,155 L347,168 L334,168 L334,155 Z" /></clipPath>
<path d="M344.5,161 C344.5,158.5147095 342.4852905,156.5 340,156.5 C337.5147095,156.5 335.5,158.5147095 335.5,161 C335.5,163.4852905 337.5147095,165.5 340,165.5 C342.4852905,165.5 344.5,163.48526 344.5,161 Z" style="fill:rgb(250,250,250);stroke:none" clip-path="url(#clip14)" />
<clipPath id="clip15"><path d="M334,155 L347,155 L347,168 L334,168 L334,155 Z" /></clipPath>
<path d="M344.5,161 C344.5,158.5147095 342.4852905,156.5 340,156.5 C337.5147095,156.5 335.5,158.5147095 335.5,161 C335.5,163.4852905 337.5147095,165.5 340,165.5 C342.4852905,165.5 344.5,163.48526 344.5,161 Z" style="fill:none;stroke:rgb(85,142,213)" clip-path="url(#clip15)" />
<clipPath id="clip16"><path d="M334,155 L347,155 L347,168 L334,168 L334,155 Z" /></clipPath>
<path d="M338,161 L342,161" style="fill:none;stroke:rgb(150,160,200)" clip-path="url(#clip16)" />
<clipPath id="clip17"><path d="M353,131 L436,131 L436,164 L353,164 L353,131 Z" /></clipPath>
<path d="M356,161 L432,161 Z" style="fill:none;stroke:rgb(85,142,213);stroke-width:3" clip-path="url(#clip17)" />
<clipPath id="clip18"><path d="M365,136 L424,136 L424,159 L365,159 L365,136 Z" /></clipPath>
<path d="M372.4116211,143.3581543 C372.1791382,143.2359619 371.9272156,143.174469 371.65625,143.1740723 C370.8778687,143.174469 370.4882813,143.6568909 370.4882813,144.6213379 L370.4882813,145.6687012 L372.1323242,145.6687012 L372.1323242,146.6970215 L370.4882813,146.6970215 L370.4882813,152.689209 L369.2568359,152.689209 L369.2568359,146.6970215 L368.0571289,146.6970215 L368.0571289,145.6687012 L369.2568359,145.6687012 L369.2568359,144.564209 C369.2568359,143.8112183 369.4738464,143.2200928 369.9074707,142.7904358 C370.3414917,142.3611755 370.8925476,142.1461487 371.5610352,142.145752 C371.9165039,142.1461487 372.2001648,142.1862183 372.4116211,142.2663574 Z M373.059082,151.1721191 C373.6855164,151.6251831 374.3603516,151.8517151 375.0839844,151.8513184 C376.0531921,151.8517151 376.5375977,151.5343323 376.5375977,150.8991699 C376.5375977,150.6286011 376.4320679,150.4056396 376.2202148,150.2298889 C376.0087585,150.0545349 375.5791016,149.8458557 374.9316406,149.604248 C374.1532593,149.291626 373.6474304,148.981781 373.4145508,148.6747131 C373.1820679,148.368042 373.0654297,147.9967041 373.0654297,147.5603027 C373.0654297,146.9386292 373.3288574,146.4403381 373.8557129,146.0658264 C374.3825684,145.6913147 375.0312195,145.5040588 375.8012695,145.5036621 C376.3979492,145.5040588 376.9525757,145.607605 377.4643555,145.8146973 L377.4643555,147.0144043 C376.9398804,146.6763916 376.3451843,146.5069885 375.6806641,146.5065918 C375.2831421,146.5069885 374.9594116,146.5938721 374.7094727,146.7672424 C374.4599304,146.9410095 374.3349609,147.1691284 374.3349609,147.4523926 C374.3349609,147.7320862 374.4250183,147.9502869 374.6047363,148.1065979 C374.7848511,148.2633057 375.1835632,148.4640503 375.8012695,148.7092285 C376.5844116,149.0016174 377.1132507,149.3043213 377.3881836,149.6173401 C377.6635132,149.9307556 377.8007813,150.3175659 377.8007813,150.7785645 C377.8007813,151.4220581 377.5373535,151.9290771 377.010498,152.2992249 C376.4836426,152.6697693 375.8012695,152.854248 374.9633789,152.854248 C374.2357788,152.854248 373.6010132,152.71698 373.059082,152.4416504 Z M385.7416992,152.689209 L384.4975586,152.689209 L384.4975586,151.5212402 L384.472168,151.5212402 C383.9603882,152.4103088 383.1645508,152.854248 382.0854492,152.854248 C381.1967773,152.854248 380.4902039,152.5384521 379.965332,151.9056702 C379.4408569,151.2732849 379.1782227,150.4191284 379.1782227,149.3439941 C379.1782227,148.1847534 379.4745789,147.2552185 380.0668945,146.5545959 C380.6596069,145.8543701 381.434021,145.5040588 382.3901367,145.5036621 C383.3466492,145.5040588 384.0405273,145.8765869 384.472168,146.6208496 L384.4975586,146.6208496 L384.4975586,142.2980957 L385.7416992,142.2980957 Z M384.5039063,148.5124512 C384.5039063,147.9498901 384.3190308,147.4793701 383.9484863,147.1004944 C383.5783386,146.7220154 383.1224976,146.5323792 382.5805664,146.5319824 C381.9204102,146.5323792 381.3999023,146.7791443 381.019043,147.2718811 C380.6381836,147.7650146 380.4477539,148.436676 380.4477539,149.2868652 C380.4477539,150.0700073 380.6310425,150.6893005 380.9968262,151.1439514 C381.3630066,151.598999 381.8505859,151.8263245 382.4599609,151.8259277 C383.0610046,151.8263245 383.5517578,151.603363 383.9326172,151.1566467 C384.3134766,150.7103271 384.5039063,150.1549072 384.5039063,149.4899902 Z M388.3759766,146.1574707 C389.0742188,145.7218628 389.8803711,145.5040588 390.7944336,145.5036621 C392.4872742,145.5040588 393.3334961,146.3927307 393.3334961,148.1696777 L393.3334961,152.689209 L392.1020508,152.689209 L392.1020508,151.6037598 L392.0703125,151.6037598 C391.5839233,152.4376831 390.8666382,152.854248 389.918457,152.854248 C389.2372742,152.854248 388.6957397,152.6705627 388.293457,152.3023987 C387.891571,151.9342346 387.6904297,151.4371338 387.6904297,150.8103027 C387.6904297,149.4987183 388.4672241,148.7350159 390.0200195,148.5187988 L392.1020508,148.2268066 C392.1020508,147.0802612 391.6283569,146.5069885 390.6801758,146.5065918 C389.8383179,146.5069885 389.0702515,146.7906494 388.3759766,147.3571777 Z M390.4580078,149.3884277 C389.8827515,149.4649963 389.4860229,149.6090088 389.2678223,149.8204651 C389.0500183,150.0323181 388.940918,150.3282776 388.940918,150.7087402 C388.940918,151.0435791 389.0595398,151.3165283 389.2963867,151.5279846 C389.5336304,151.7398376 389.8466492,151.8453674 390.2358398,151.8449707 C390.777771,151.8453674 391.2240906,151.6549377 391.5751953,151.2740784 C391.9266968,150.893219 392.1020508,150.4151611 392.1020508,149.8391113 L392.1020508,149.1662598 Z M399.2114258,143.3581543 C398.9789429,143.2359619 398.7270203,143.174469 398.4560547,143.1740723 C397.6776733,143.174469 397.2880859,143.6568909 397.2880859,144.6213379 L397.2880859,145.6687012 L398.9321289,145.6687012 L398.9321289,146.6970215 L397.2880859,146.6970215 L397.2880859,152.689209 L396.0566406,152.689209 L396.0566406,146.6970215 L394.8569336,146.6970215 L394.8569336,145.6687012 L396.0566406,145.6687012 L396.0566406,144.564209 C396.0566406,143.8112183 396.2736511,143.2200928 396.7072754,142.7904358 C397.1412964,142.3611755 397.6923523,142.1461487 398.3608398,142.145752 C398.7163086,142.1461487 398.9999695,142.1862183 399.2114258,142.2663574 Z M400.4174805,146.1574707 C401.1157227,145.7218628 401.921875,145.5040588 402.8359375,145.5036621 C404.5287781,145.5040588 405.375,146.3927307 405.375,148.1696777 L405.375,152.689209 L404.1435547,152.689209 L404.1435547,151.6037598 L404.1118164,151.6037598 C403.6254272,152.4376831 402.9081421,152.854248 401.9599609,152.854248 C401.2787781,152.854248 400.7372437,152.6705627 400.3349609,152.3023987 C399.933075,151.9342346 399.7319336,151.4371338 399.7319336,150.8103027 C399.7319336,149.4987183 400.508728,148.7350159 402.0615234,148.5187988 L404.1435547,148.2268066 C404.1435547,147.0802612 403.6698608,146.5069885 402.7216797,146.5065918 C401.8798218,146.5069885 401.1117554,146.7906494 400.4174805,147.3571777 Z M402.4995117,149.3884277 C401.9242554,149.4649963 401.5275269,149.6090088 401.3093262,149.8204651 C401.0915222,150.0323181 400.9824219,150.3282776 400.9824219,150.7087402 C400.9824219,151.0435791 401.1010437,151.3165283 401.3378906,151.5279846 C401.5751343,151.7398376 401.8881531,151.8453674 402.2773438,151.8449707 C402.8192749,151.8453674 403.2655945,151.6549377 403.6166992,151.2740784 C403.9682007,150.893219 404.1435547,150.4151611 404.1435547,149.8391113 L404.1435547,149.1662598 Z M407.2602539,151.1721191 C407.8866882,151.6251831 408.5615234,151.8517151 409.2851563,151.8513184 C410.254364,151.8517151 410.7387695,151.5343323 410.7387695,150.8991699 C410.7387695,150.6286011 410.6332397,150.4056396 410.4213867,150.2298889 C410.2099304,150.0545349 409.7802734,149.8458557 409.1328125,149.604248 C408.3544312,149.291626 407.8486023,148.981781 407.6157227,148.6747131 C407.3832397,148.368042 407.2666016,147.9967041 407.2666016,147.5603027 C407.2666016,146.9386292 407.5300293,146.4403381 408.0568848,146.0658264 C408.5837402,145.6913147 409.2323914,145.5040588 410.0024414,145.5036621 C410.5991211,145.5040588 411.1537476,145.607605 411.6655273,145.8146973 L411.6655273,147.0144043 C411.1410522,146.6763916 410.5463562,146.5069885 409.8818359,146.5065918 C409.484314,146.5069885 409.1605835,146.5938721 408.9106445,146.7672424 C408.6611023,146.9410095 408.5361328,147.1691284 408.5361328,147.4523926 C408.5361328,147.7320862 408.6261902,147.9502869 408.8059082,148.1065979 C408.9860229,148.2633057 409.3847351,148.4640503 410.0024414,148.7092285 C410.7855835,149.0016174 411.3144226,149.3043213 411.5893555,149.6173401 C411.8646851,149.9307556 412.0019531,150.3175659 412.0019531,150.7785645 C412.0019531,151.4220581 411.7385254,151.9290771 411.2116699,152.2992249 C410.6848145,152.6697693 410.0024414,152.854248 409.1645508,152.854248 C408.4369507,152.854248 407.8021851,152.71698 407.2602539,152.4416504 Z M419.9428711,152.689209 L418.6987305,152.689209 L418.6987305,151.5212402 L418.6733398,151.5212402 C418.1615601,152.4103088 417.3657227,152.854248 416.2866211,152.854248 C415.3979492,152.854248 414.6913757,152.5384521 414.1665039,151.9056702 C413.6420288,151.2732849 413.3793945,150.4191284 413.3793945,149.3439941 C413.3793945,148.1847534 413.6757507,147.2552185 414.2680664,146.5545959 C414.8607788,145.8543701 415.6351929,145.5040588 416.5913086,145.5036621 C417.547821,145.5040588 418.2416992,145.8765869 418.6733398,146.6208496 L418.6987305,146.6208496 L418.6987305,142.2980957 L419.9428711,142.2980957 Z M418.7050781,148.5124512 C418.7050781,147.9498901 418.5202026,147.4793701 418.1496582,147.1004944 C417.7795105,146.7220154 417.3236694,146.5323792 416.7817383,146.5319824 C416.121582,146.5323792 415.6010742,146.7791443 415.2202148,147.2718811 C414.8393555,147.7650146 414.6489258,148.436676 414.6489258,149.2868652 C414.6489258,150.0700073 414.8322144,150.6893005 415.197998,151.1439514 C415.5641785,151.598999 416.0517578,151.8263245 416.6611328,151.8259277 C417.2621765,151.8263245 417.7529297,151.603363 418.1337891,151.1566467 C418.5146484,150.7103271 418.7050781,150.1549072 418.7050781,149.4899902 Z" style="fill:rgb(0,0,0);stroke:none" clip-path="url(#clip18)" />
</svg>
