<svg xmlns="http://www.w3.org/2000/svg" xmlns:xlink="http://www.w3.org/1999/xlink" id="processonSvg1000" viewBox="80.0 163.0 716.0 330.125" width="716.0" height="330.125"><defs id="ProcessOnDefs1001"><marker id="ProcessOnMarker1039" markerUnits="userSpaceOnUse" orient="auto" markerWidth="16.23606797749979" markerHeight="10.550836550532098" viewBox="-1.0 -1.3763819204711736 16.23606797749979 10.550836550532098" refX="-1.0" refY="3.8990363547948754"><path id="ProcessOnPath1040" d="M12.0 3.8990363547948754L0.0 7.798072709589751V0.0Z" stroke="#7c233e" stroke-width="2.0" fill="#7c233e" transform="matrix(1.0,0.0,0.0,1.0,0.0,0.0)"/></marker><marker id="ProcessOnMarker1046" markerUnits="userSpaceOnUse" orient="auto" markerWidth="16.23606797749979" markerHeight="10.550836550532098" viewBox="-1.0 -1.3763819204711736 16.23606797749979 10.550836550532098" refX="-1.0" refY="3.8990363547948754"><path id="ProcessOnPath1047" d="M12.0 3.8990363547948754L0.0 7.798072709589751V0.0Z" stroke="#7c233e" stroke-width="2.0" fill="#7c233e" transform="matrix(1.0,0.0,0.0,1.0,0.0,0.0)"/></marker><marker id="ProcessOnMarker1053" markerUnits="userSpaceOnUse" orient="auto" markerWidth="16.23606797749979" markerHeight="10.550836550532098" viewBox="-1.0 -1.3763819204711736 16.23606797749979 10.550836550532098" refX="-1.0" refY="3.8990363547948754"><path id="ProcessOnPath1054" d="M12.0 3.8990363547948754L0.0 7.798072709589751V0.0Z" stroke="#7c233e" stroke-width="2.0" fill="#7c233e" transform="matrix(1.0,0.0,0.0,1.0,0.0,0.0)"/></marker><marker id="ProcessOnMarker1060" markerUnits="userSpaceOnUse" orient="auto" markerWidth="16.23606797749979" markerHeight="10.550836550532098" viewBox="-1.0 -1.3763819204711736 16.23606797749979 10.550836550532098" refX="-1.0" refY="3.8990363547948754"><path id="ProcessOnPath1061" d="M12.0 3.8990363547948754L0.0 7.798072709589751V0.0Z" stroke="#7c233e" stroke-width="2.0" fill="#7c233e" transform="matrix(1.0,0.0,0.0,1.0,0.0,0.0)"/></marker><marker id="ProcessOnMarker1067" markerUnits="userSpaceOnUse" orient="auto" markerWidth="16.23606797749979" markerHeight="10.550836550532098" viewBox="-1.0 -1.3763819204711736 16.23606797749979 10.550836550532098" refX="-1.0" refY="3.8990363547948754"><path id="ProcessOnPath1068" d="M12.0 3.8990363547948754L0.0 7.798072709589751V0.0Z" stroke="#7c233e" stroke-width="2.0" fill="#7c233e" transform="matrix(1.0,0.0,0.0,1.0,0.0,0.0)"/></marker><marker id="ProcessOnMarker1074" markerUnits="userSpaceOnUse" orient="auto" markerWidth="16.23606797749979" markerHeight="10.550836550532098" viewBox="-1.0 -1.3763819204711736 16.23606797749979 10.550836550532098" refX="-1.0" refY="3.8990363547948754"><path id="ProcessOnPath1075" d="M12.0 3.8990363547948754L0.0 7.798072709589751V0.0Z" stroke="#7c233e" stroke-width="2.0" fill="#7c233e" transform="matrix(1.0,0.0,0.0,1.0,0.0,0.0)"/></marker><marker id="ProcessOnMarker1081" markerUnits="userSpaceOnUse" orient="auto" markerWidth="16.23606797749979" markerHeight="10.550836550532098" viewBox="-1.0 -1.3763819204711736 16.23606797749979 10.550836550532098" refX="-1.0" refY="3.8990363547948754"><path id="ProcessOnPath1082" d="M12.0 3.8990363547948754L0.0 7.798072709589751V0.0Z" stroke="#7c233e" stroke-width="2.0" fill="#7c233e" transform="matrix(1.0,0.0,0.0,1.0,0.0,0.0)"/></marker><marker id="ProcessOnMarker1088" markerUnits="userSpaceOnUse" orient="auto" markerWidth="16.23606797749979" markerHeight="10.550836550532098" viewBox="-1.0 -1.3763819204711736 16.23606797749979 10.550836550532098" refX="-1.0" refY="3.8990363547948754"><path id="ProcessOnPath1089" d="M12.0 3.8990363547948754L0.0 7.798072709589751V0.0Z" stroke="#7c233e" stroke-width="2.0" fill="#7c233e" transform="matrix(1.0,0.0,0.0,1.0,0.0,0.0)"/></marker><marker id="ProcessOnMarker1095" markerUnits="userSpaceOnUse" orient="auto" markerWidth="16.23606797749979" markerHeight="10.550836550532098" viewBox="-1.0 -1.3763819204711736 16.23606797749979 10.550836550532098" refX="-1.0" refY="3.8990363547948754"><path id="ProcessOnPath1096" d="M12.0 3.8990363547948754L0.0 7.798072709589751V0.0Z" stroke="#7c233e" stroke-width="2.0" fill="#7c233e" transform="matrix(1.0,0.0,0.0,1.0,0.0,0.0)"/></marker><marker id="ProcessOnMarker1106" markerUnits="userSpaceOnUse" orient="auto" markerWidth="16.23606797749979" markerHeight="10.550836550532098" viewBox="-1.0 -1.3763819204711736 16.23606797749979 10.550836550532098" refX="-1.0" refY="3.8990363547948754"><path id="ProcessOnPath1107" d="M12.0 3.8990363547948754L0.0 7.798072709589751V0.0Z" stroke="#7c233e" stroke-width="2.0" fill="#7c233e" transform="matrix(1.0,0.0,0.0,1.0,0.0,0.0)"/></marker></defs><g id="ProcessOnG1002"><path id="ProcessOnPath1003" d="M80.0 163.0H796.0V493.125H80.0V163.0Z" fill="none"/><g id="ProcessOnG1004"><g id="ProcessOnG1005" transform="matrix(1.0,0.0,0.0,1.0,156.0,183.0)" opacity="1.0"><path id="ProcessOnPath1006" d="M83.33333333333333 0.0L16.666666666666668 0.0L0.0 35.0L16.666666666666668 70.0L83.33333333333333 70.0Q100.0 70.0 100.0 35.0Q100.0 0.0 83.33333333333333 0.0Z" stroke="#7c233e" stroke-width="2.0" stroke-dasharray="none" opacity="1.0" fill="#7c233e"/><g id="ProcessOnG1007" transform="matrix(1.0,0.0,0.0,1.0,10.0,26.875)"><text id="ProcessOnText1008" fill="#ffffff" font-weight="normal" font-style="normal" text-decoration="blink" font-family="微软雅黑" text-anchor="middle" font-size="13" x="39.0" y="13.325">测试页面</text></g></g><g id="ProcessOnG1009" transform="matrix(1.0,0.0,0.0,1.0,156.0,365.0)" opacity="1.0"><path id="ProcessOnPath1010" d="M0.0 0.0L100.0 0.0L100.0 70.0L0.0 70.0Z" stroke="#7c233e" stroke-width="2.0" stroke-dasharray="none" opacity="1.0" fill="#7c233e"/><g id="ProcessOnG1011" transform="matrix(1.0,0.0,0.0,1.0,10.0,26.875)"><text id="ProcessOnText1012" fill="#ffffff" font-weight="normal" font-style="normal" text-decoration="blink" font-family="微软雅黑" text-anchor="middle" font-size="13" x="39.0" y="13.325">WebSocket</text></g></g><g id="ProcessOnG1013" transform="matrix(1.0,0.0,0.0,1.0,345.0,365.0)" opacity="1.0"><path id="ProcessOnPath1014" d="M0.0 16.666666666666668L16.666666666666668 0.0L83.33333333333333 0.0L100.0 16.666666666666668L100.0 70.0L0.0 70.0L0.0 16.666666666666668Z" stroke="#7c233e" stroke-width="2.0" stroke-dasharray="none" opacity="1.0" fill="#7c233e"/><g id="ProcessOnG1015" transform="matrix(1.0,0.0,0.0,1.0,10.0,18.75)"><text id="ProcessOnText1016" fill="#ffffff" font-weight="normal" font-style="normal" text-decoration="blink" font-family="微软雅黑" text-anchor="middle" font-size="13" x="39.0" y="13.325">一定数量</text><text id="ProcessOnText1017" fill="#ffffff" font-weight="normal" font-style="normal" text-decoration="blink" font-family="微软雅黑" text-anchor="middle" font-size="13" x="39.0" y="29.575">的线程</text></g></g><g id="ProcessOnG1018" transform="matrix(1.0,0.0,0.0,1.0,539.0,370.0)" opacity="1.0"><path id="ProcessOnPath1019" d="M0.0 0.0L70.0 0.0L70.0 40.0L35.0 60.0L0.0 40.0L0.0 0.0Z" stroke="#7c233e" stroke-width="2.0" stroke-dasharray="none" opacity="1.0" fill="#7c233e"/><g id="ProcessOnG1020" transform="matrix(1.0,0.0,0.0,1.0,0.0,3.75)"><text id="ProcessOnText1021" fill="#ffffff" font-weight="normal" font-style="normal" text-decoration="blink" font-family="微软雅黑" text-anchor="middle" font-size="13" x="34.0" y="13.325">单次</text><text id="ProcessOnText1022" fill="#ffffff" font-weight="normal" font-style="normal" text-decoration="blink" font-family="微软雅黑" text-anchor="middle" font-size="13" x="34.0" y="29.575">测试</text></g></g><g id="ProcessOnG1023" transform="matrix(1.0,0.0,0.0,1.0,676.0,263.0)" opacity="1.0"><path id="ProcessOnPath1024" d="M83.33333333333333 0.0L16.666666666666668 0.0L0.0 35.0L16.666666666666668 70.0L83.33333333333333 70.0Q100.0 70.0 100.0 35.0Q100.0 0.0 83.33333333333333 0.0Z" stroke="#7c233e" stroke-width="2.0" stroke-dasharray="none" opacity="1.0" fill="#7c233e"/><g id="ProcessOnG1025" transform="matrix(1.0,0.0,0.0,1.0,10.0,26.875)"><text id="ProcessOnText1026" fill="#ffffff" font-weight="normal" font-style="normal" text-decoration="blink" font-family="微软雅黑" text-anchor="middle" font-size="13" x="39.0" y="13.325">监控页面</text></g></g><g id="ProcessOnG1027" transform="matrix(1.0,0.0,0.0,1.0,305.0,183.0)" opacity="1.0"><path id="ProcessOnPath1028" d="M35.0 70.0C-11.666666666666664 70.0 -11.666666666666664 0.0 35.0 0.0C81.66666666666666 0.0 81.66666666666666 70.0 35.0 70.0L70.0 70.0Z" stroke="#7c233e" stroke-width="2.0" stroke-dasharray="none" opacity="1.0" fill="#7c233e"/><g id="ProcessOnG1029" transform="matrix(1.0,0.0,0.0,1.0,10.0,10.625)"><text id="ProcessOnText1030" fill="#ffffff" font-weight="normal" font-style="normal" text-decoration="blink" font-family="微软雅黑" text-anchor="middle" font-size="13" x="24.0" y="13.325">定时重</text><text id="ProcessOnText1031" fill="#ffffff" font-weight="normal" font-style="normal" text-decoration="blink" font-family="微软雅黑" text-anchor="middle" font-size="13" x="24.0" y="29.575">复任务</text><text id="ProcessOnText1032" fill="#ffffff" font-weight="normal" font-style="normal" text-decoration="blink" font-family="微软雅黑" text-anchor="middle" font-size="13" x="24.0" y="45.825">队列</text></g></g><g id="ProcessOnG1033" transform="matrix(1.0,0.0,0.0,1.0,676.0,375.0)" opacity="1.0"><path id="ProcessOnPath1034" d="M16.666666666666668 0.0L83.33333333333333 0.0C105.55555555555556 0.0 105.55555555555556 50.0 83.33333333333333 50.0L16.666666666666668 50.0C-5.555555555555556 50.0 -5.555555555555556 0.0 16.666666666666668 0.0Z" stroke="#7c233e" stroke-width="2.0" stroke-dasharray="none" opacity="1.0" fill="#7c233e"/><g id="ProcessOnG1035" transform="matrix(1.0,0.0,0.0,1.0,10.0,16.875)"><text id="ProcessOnText1036" fill="#ffffff" font-weight="normal" font-style="normal" text-decoration="blink" font-family="微软雅黑" text-anchor="middle" font-size="13" x="39.0" y="13.325">发送邮件</text></g></g><g id="ProcessOnG1037"><path id="ProcessOnPath1038" d="M206.0 253.0L206.0 309.0L206.0 309.0L206.0 349.7639320225002" stroke="#7c233e" stroke-width="2.0" stroke-dasharray="none" fill="none" marker-end="url(#ProcessOnMarker1039)"/><g id="ProcessOnG1041" transform="matrix(1.0,0.0,0.0,1.0,206.0,293.25696601125014)"><path id="ProcessOnPath1042" d="M0 0H78.0V16.25H0Z" fill="#fff" transform="matrix(1.0,0.0,0.0,1.0,-39.0,0.0)"/><text id="ProcessOnText1043" fill="#7c233e" font-weight="normal" font-style="normal" text-decoration="blink" font-family="微软雅黑" text-anchor="middle" font-size="13" x="0.0" y="13.325">发送测试参数</text></g></g><g id="ProcessOnG1044"><path id="ProcessOnPath1045" d="M156.0 400.0L126.0 400.0L126.0 218.0L140.7639320225002 218.0" stroke="#7c233e" stroke-width="2.0" stroke-dasharray="none" fill="none" marker-end="url(#ProcessOnMarker1046)"/><g id="ProcessOnG1048" transform="matrix(1.0,0.0,0.0,1.0,126.0,308.4930339887499)"><path id="ProcessOnPath1049" d="M0 0H52.0V16.25H0Z" fill="#fff" transform="matrix(1.0,0.0,0.0,1.0,-26.0,0.0)"/><text id="ProcessOnText1050" fill="#7c233e" font-weight="normal" font-style="normal" text-decoration="blink" font-family="微软雅黑" text-anchor="middle" font-size="13" x="0.0" y="13.325">发送结果</text></g></g><g id="ProcessOnG1051"><path id="ProcessOnPath1052" d="M256.0 400.0L300.5 400.0L300.5 400.0L329.7639320225002 400.0" stroke="#7c233e" stroke-width="2.0" stroke-dasharray="none" fill="none" marker-end="url(#ProcessOnMarker1053)"/><g id="ProcessOnG1055" transform="matrix(1.0,0.0,0.0,1.0,292.88196601125014,391.875)"><path id="ProcessOnPath1056" d="M0 0H26.0V16.25H0Z" fill="#fff" transform="matrix(1.0,0.0,0.0,1.0,-13.0,0.0)"/><text id="ProcessOnText1057" fill="#7c233e" font-weight="normal" font-style="normal" text-decoration="blink" font-family="微软雅黑" text-anchor="middle" font-size="13" x="0.0" y="13.325">创建</text></g></g><g id="ProcessOnG1058"><path id="ProcessOnPath1059" d="M445.0 400.0L492.0 400.0L492.0 400.0L523.7639320225002 400.0" stroke="#7c233e" stroke-width="2.0" stroke-dasharray="none" fill="none" marker-end="url(#ProcessOnMarker1060)"/><g id="ProcessOnG1062" transform="matrix(1.0,0.0,0.0,1.0,484.3819660112501,391.875)"><path id="ProcessOnPath1063" d="M0 0H52.0V16.25H0Z" fill="#fff" transform="matrix(1.0,0.0,0.0,1.0,-26.0,0.0)"/><text id="ProcessOnText1064" fill="#7c233e" font-weight="normal" font-style="normal" text-decoration="blink" font-family="微软雅黑" text-anchor="middle" font-size="13" x="0.0" y="13.325">每个包含</text></g></g><g id="ProcessOnG1065"><path id="ProcessOnPath1066" d="M676.0 298.0L628.5 298.0L628.5 218.0L596.2360679774998 218.0" stroke="#7c233e" stroke-width="2.0" stroke-dasharray="none" fill="none" marker-end="url(#ProcessOnMarker1067)"/><g id="ProcessOnG1069" transform="matrix(1.0,0.0,0.0,1.0,628.5,257.4930339887499)"><path id="ProcessOnPath1070" d="M0 0H78.0V16.25H0Z" fill="#fff" transform="matrix(1.0,0.0,0.0,1.0,-39.0,0.0)"/><text id="ProcessOnText1071" fill="#7c233e" font-weight="normal" font-style="normal" text-decoration="blink" font-family="微软雅黑" text-anchor="middle" font-size="13" x="0.0" y="13.325">发送监控参数</text></g></g><g id="ProcessOnG1072"><path id="ProcessOnPath1073" d="M340.0 253.0L340.0 311.5L574.0 311.5L574.0 354.7639320225002" stroke="#7c233e" stroke-width="2.0" stroke-dasharray="none" fill="none" marker-end="url(#ProcessOnMarker1074)"/><g id="ProcessOnG1076" transform="matrix(1.0,0.0,0.0,1.0,449.38196601125014,303.375)"><path id="ProcessOnPath1077" d="M0 0H78.0V16.25H0Z" fill="#fff" transform="matrix(1.0,0.0,0.0,1.0,-39.0,0.0)"/><text id="ProcessOnText1078" fill="#7c233e" font-weight="normal" font-style="normal" text-decoration="blink" font-family="微软雅黑" text-anchor="middle" font-size="13" x="0.0" y="13.325">每个任务包含</text></g></g><g id="ProcessOnG1079"><path id="ProcessOnPath1080" d="M609.0 400.0L642.5 400.0L642.5 400.0L660.7639320225002 400.0" stroke="#7c233e" stroke-width="2.0" stroke-dasharray="none" fill="none" marker-end="url(#ProcessOnMarker1081)"/><g id="ProcessOnG1083" transform="matrix(1.0,0.0,0.0,1.0,634.8819660112501,391.875)"><path id="ProcessOnPath1084" d="M0 0H26.0V16.25H0Z" fill="#fff" transform="matrix(1.0,0.0,0.0,1.0,-13.0,0.0)"/><text id="ProcessOnText1085" fill="#7c233e" font-weight="normal" font-style="normal" text-decoration="blink" font-family="微软雅黑" text-anchor="middle" font-size="13" x="0.0" y="13.325">出错</text></g></g><g id="ProcessOnG1086"><path id="ProcessOnPath1087" d="M574.0 430.0L574.0 465.0L395.0 465.0L395.0 450.2360679774998" stroke="#7c233e" stroke-width="2.0" stroke-dasharray="none" fill="none" marker-end="url(#ProcessOnMarker1088)"/><g id="ProcessOnG1090" transform="matrix(1.0,0.0,0.0,1.0,494.61803398874986,456.875)"><path id="ProcessOnPath1091" d="M0 0H26.0V16.25H0Z" fill="#fff" transform="matrix(1.0,0.0,0.0,1.0,-13.0,0.0)"/><text id="ProcessOnText1092" fill="#7c233e" font-weight="normal" font-style="normal" text-decoration="blink" font-family="微软雅黑" text-anchor="middle" font-size="13" x="0.0" y="13.325">完成</text></g></g><g id="ProcessOnG1093"><path id="ProcessOnPath1094" d="M395.0 435.0L395.0 465.0L206.0 465.0L206.0 450.2360679774998" stroke="#7c233e" stroke-width="2.0" stroke-dasharray="none" fill="none" marker-end="url(#ProcessOnMarker1095)"/><g id="ProcessOnG1097" transform="matrix(1.0,0.0,0.0,1.0,308.11803398874986,456.875)"><path id="ProcessOnPath1098" d="M0 0H52.0V16.25H0Z" fill="#fff" transform="matrix(1.0,0.0,0.0,1.0,-26.0,0.0)"/><text id="ProcessOnText1099" fill="#7c233e" font-weight="normal" font-style="normal" text-decoration="blink" font-family="微软雅黑" text-anchor="middle" font-size="13" x="0.0" y="13.325">统计结果</text></g></g><g id="ProcessOnG1100" transform="matrix(1.0,0.0,0.0,1.0,481.0,183.0)" opacity="1.0"><path id="ProcessOnPath1101" d="M0.0 0.0L100.0 0.0L100.0 70.0L0.0 70.0Z" stroke="#7c233e" stroke-width="2.0" stroke-dasharray="none" opacity="1.0" fill="#7c233e"/><g id="ProcessOnG1102" transform="matrix(1.0,0.0,0.0,1.0,10.0,26.875)"><text id="ProcessOnText1103" fill="#ffffff" font-weight="normal" font-style="normal" text-decoration="blink" font-family="微软雅黑" text-anchor="middle" font-size="13" x="39.0" y="13.325">监控接口</text></g></g><g id="ProcessOnG1104"><path id="ProcessOnPath1105" d="M481.0 218.0L428.0 218.0L428.0 218.0L390.2360679774998 218.0" stroke="#7c233e" stroke-width="2.0" stroke-dasharray="none" fill="none" marker-end="url(#ProcessOnMarker1106)"/><g id="ProcessOnG1108" transform="matrix(1.0,0.0,0.0,1.0,435.61803398874986,209.875)"><path id="ProcessOnPath1109" d="M0 0H65.0V16.25H0Z" fill="#fff" transform="matrix(1.0,0.0,0.0,1.0,-32.5,0.0)"/><text id="ProcessOnText1110" fill="#7c233e" font-weight="normal" font-style="normal" text-decoration="blink" font-family="微软雅黑" text-anchor="middle" font-size="13" x="0.0" y="13.325">添加到队列</text></g></g></g></g></svg>
